<mxfile host="app.diagrams.net" modified="2024-04-01T07:10:57.867Z" agent="Mozilla/5.0 (Windows NT 10.0; Win64; x64) AppleWebKit/537.36 (KHTML, like Gecko) Chrome/120.0.0.0 YaBrowser/24.1.0.0 Safari/537.36" etag="nwE9pAJw94cCGDFHjOno" version="24.2.1" type="device">
  <diagram name="Page-1" id="2a216829-ef6e-dabb-86c1-c78162f3ba2b">
    <mxGraphModel dx="1380" dy="639" grid="1" gridSize="10" guides="1" tooltips="1" connect="1" arrows="1" fold="1" page="1" pageScale="1" pageWidth="850" pageHeight="1100" background="none" math="0" shadow="0">
      <root>
        <mxCell id="0" />
        <mxCell id="1" parent="0" />
        <mxCell id="7XbsIDxwbCqd1d_OJ_RB-5" value="" style="rounded=0;whiteSpace=wrap;html=1;" vertex="1" parent="1">
          <mxGeometry x="120" y="250" width="680" height="610" as="geometry" />
        </mxCell>
        <mxCell id="7XbsIDxwbCqd1d_OJ_RB-1" value="БД" style="shape=datastore;html=1;labelPosition=center;verticalLabelPosition=bottom;align=center;verticalAlign=top;" vertex="1" parent="1">
          <mxGeometry x="150" y="540" width="60" height="60" as="geometry" />
        </mxCell>
        <mxCell id="7XbsIDxwbCqd1d_OJ_RB-2" value="Администратор" style="points=[[0.25,0,0],[0.5,0,0],[0.75,0,0],[1,0.25,0],[1,0.5,0],[1,0.75,0],[0.75,1,0],[0.5,1,0],[0.25,1,0],[0,0.75,0],[0,0.5,0],[0,0.25,0]];shape=mxgraph.bpmn.task;whiteSpace=wrap;rectStyle=rounded;size=10;html=1;container=1;expand=0;collapsible=0;taskMarker=abstract;rotation=-90;" vertex="1" parent="1">
          <mxGeometry x="20" y="340" width="120" height="80" as="geometry" />
        </mxCell>
        <mxCell id="7XbsIDxwbCqd1d_OJ_RB-3" value="Пользователь" style="points=[[0.25,0,0],[0.5,0,0],[0.75,0,0],[1,0.25,0],[1,0.5,0],[1,0.75,0],[0.75,1,0],[0.5,1,0],[0.25,1,0],[0,0.75,0],[0,0.5,0],[0,0.25,0]];shape=mxgraph.bpmn.task;whiteSpace=wrap;rectStyle=rounded;size=10;html=1;container=1;expand=0;collapsible=0;taskMarker=abstract;rotation=-90;" vertex="1" parent="1">
          <mxGeometry x="20" y="690" width="120" height="80" as="geometry" />
        </mxCell>
        <mxCell id="7XbsIDxwbCqd1d_OJ_RB-9" style="edgeStyle=orthogonalEdgeStyle;rounded=0;orthogonalLoop=1;jettySize=auto;html=1;exitX=1;exitY=0.5;exitDx=0;exitDy=0;exitPerimeter=0;" edge="1" parent="1" source="7XbsIDxwbCqd1d_OJ_RB-6" target="7XbsIDxwbCqd1d_OJ_RB-8">
          <mxGeometry relative="1" as="geometry" />
        </mxCell>
        <mxCell id="7XbsIDxwbCqd1d_OJ_RB-38" style="edgeStyle=orthogonalEdgeStyle;rounded=0;orthogonalLoop=1;jettySize=auto;html=1;" edge="1" parent="1" source="7XbsIDxwbCqd1d_OJ_RB-7" target="7XbsIDxwbCqd1d_OJ_RB-37">
          <mxGeometry relative="1" as="geometry" />
        </mxCell>
        <mxCell id="7XbsIDxwbCqd1d_OJ_RB-11" style="edgeStyle=orthogonalEdgeStyle;rounded=0;orthogonalLoop=1;jettySize=auto;html=1;exitX=1;exitY=0.5;exitDx=0;exitDy=0;entryX=0;entryY=0.5;entryDx=0;entryDy=0;" edge="1" parent="1" source="7XbsIDxwbCqd1d_OJ_RB-8" target="7XbsIDxwbCqd1d_OJ_RB-10">
          <mxGeometry relative="1" as="geometry" />
        </mxCell>
        <mxCell id="7XbsIDxwbCqd1d_OJ_RB-8" value="Авторизация" style="rounded=0;whiteSpace=wrap;html=1;" vertex="1" parent="1">
          <mxGeometry x="240" y="412.5" width="80" height="45" as="geometry" />
        </mxCell>
        <mxCell id="7XbsIDxwbCqd1d_OJ_RB-16" style="edgeStyle=orthogonalEdgeStyle;rounded=0;orthogonalLoop=1;jettySize=auto;html=1;entryX=0;entryY=0.5;entryDx=0;entryDy=0;exitX=0.5;exitY=0;exitDx=0;exitDy=0;" edge="1" parent="1" source="7XbsIDxwbCqd1d_OJ_RB-10" target="7XbsIDxwbCqd1d_OJ_RB-15">
          <mxGeometry relative="1" as="geometry" />
        </mxCell>
        <mxCell id="7XbsIDxwbCqd1d_OJ_RB-18" style="edgeStyle=orthogonalEdgeStyle;rounded=0;orthogonalLoop=1;jettySize=auto;html=1;entryX=0;entryY=0.5;entryDx=0;entryDy=0;exitX=0.5;exitY=0;exitDx=0;exitDy=0;" edge="1" parent="1" source="7XbsIDxwbCqd1d_OJ_RB-10" target="7XbsIDxwbCqd1d_OJ_RB-17">
          <mxGeometry relative="1" as="geometry" />
        </mxCell>
        <mxCell id="7XbsIDxwbCqd1d_OJ_RB-10" value="" style="rhombus;whiteSpace=wrap;html=1;" vertex="1" parent="1">
          <mxGeometry x="360" y="402.5" width="50" height="65" as="geometry" />
        </mxCell>
        <mxCell id="7XbsIDxwbCqd1d_OJ_RB-12" value="" style="points=[[0.145,0.145,0],[0.5,0,0],[0.855,0.145,0],[1,0.5,0],[0.855,0.855,0],[0.5,1,0],[0.145,0.855,0],[0,0.5,0]];shape=mxgraph.bpmn.event;html=1;verticalLabelPosition=bottom;labelBackgroundColor=#ffffff;verticalAlign=top;align=center;perimeter=ellipsePerimeter;outlineConnect=0;aspect=fixed;outline=standard;symbol=general;fillColor=#FF9999;" vertex="1" parent="1">
          <mxGeometry x="435" y="475" width="50" height="50" as="geometry" />
        </mxCell>
        <mxCell id="7XbsIDxwbCqd1d_OJ_RB-13" style="edgeStyle=orthogonalEdgeStyle;rounded=0;orthogonalLoop=1;jettySize=auto;html=1;exitX=0.5;exitY=1;exitDx=0;exitDy=0;entryX=0;entryY=0.5;entryDx=0;entryDy=0;entryPerimeter=0;" edge="1" parent="1" source="7XbsIDxwbCqd1d_OJ_RB-10" target="7XbsIDxwbCqd1d_OJ_RB-12">
          <mxGeometry relative="1" as="geometry" />
        </mxCell>
        <mxCell id="7XbsIDxwbCqd1d_OJ_RB-21" style="edgeStyle=orthogonalEdgeStyle;rounded=0;orthogonalLoop=1;jettySize=auto;html=1;" edge="1" parent="1" source="7XbsIDxwbCqd1d_OJ_RB-15" target="7XbsIDxwbCqd1d_OJ_RB-19">
          <mxGeometry relative="1" as="geometry" />
        </mxCell>
        <mxCell id="7XbsIDxwbCqd1d_OJ_RB-15" value="Добавить музыку" style="rounded=0;whiteSpace=wrap;html=1;" vertex="1" parent="1">
          <mxGeometry x="435" y="357.5" width="80" height="45" as="geometry" />
        </mxCell>
        <mxCell id="7XbsIDxwbCqd1d_OJ_RB-23" style="edgeStyle=orthogonalEdgeStyle;rounded=0;orthogonalLoop=1;jettySize=auto;html=1;" edge="1" parent="1" source="7XbsIDxwbCqd1d_OJ_RB-17" target="7XbsIDxwbCqd1d_OJ_RB-22">
          <mxGeometry relative="1" as="geometry" />
        </mxCell>
        <mxCell id="7XbsIDxwbCqd1d_OJ_RB-17" value="Заблокировать пользователя" style="rounded=0;whiteSpace=wrap;html=1;" vertex="1" parent="1">
          <mxGeometry x="435" y="300" width="80" height="45" as="geometry" />
        </mxCell>
        <mxCell id="7XbsIDxwbCqd1d_OJ_RB-26" style="edgeStyle=orthogonalEdgeStyle;rounded=0;orthogonalLoop=1;jettySize=auto;html=1;" edge="1" parent="1" source="7XbsIDxwbCqd1d_OJ_RB-19" target="7XbsIDxwbCqd1d_OJ_RB-24">
          <mxGeometry relative="1" as="geometry" />
        </mxCell>
        <mxCell id="7XbsIDxwbCqd1d_OJ_RB-19" value="Выбрать аудио-запись" style="rounded=0;whiteSpace=wrap;html=1;" vertex="1" parent="1">
          <mxGeometry x="550" y="357.5" width="80" height="45" as="geometry" />
        </mxCell>
        <mxCell id="7XbsIDxwbCqd1d_OJ_RB-25" style="edgeStyle=orthogonalEdgeStyle;rounded=0;orthogonalLoop=1;jettySize=auto;html=1;" edge="1" parent="1" source="7XbsIDxwbCqd1d_OJ_RB-22" target="7XbsIDxwbCqd1d_OJ_RB-24">
          <mxGeometry relative="1" as="geometry" />
        </mxCell>
        <mxCell id="7XbsIDxwbCqd1d_OJ_RB-22" value="Выбрать пользователя" style="rounded=0;whiteSpace=wrap;html=1;" vertex="1" parent="1">
          <mxGeometry x="550" y="300" width="80" height="45" as="geometry" />
        </mxCell>
        <mxCell id="7XbsIDxwbCqd1d_OJ_RB-24" value="Подтвердить изменения" style="rounded=0;whiteSpace=wrap;html=1;" vertex="1" parent="1">
          <mxGeometry x="670" y="330" width="80" height="45" as="geometry" />
        </mxCell>
        <mxCell id="7XbsIDxwbCqd1d_OJ_RB-27" value="Запись" style="shape=mxgraph.bpmn.data;labelPosition=center;verticalLabelPosition=bottom;align=center;verticalAlign=top;size=15;html=1;" vertex="1" parent="1">
          <mxGeometry x="690" y="410" width="40" height="60" as="geometry" />
        </mxCell>
        <mxCell id="7XbsIDxwbCqd1d_OJ_RB-29" value="" style="edgeStyle=elbowEdgeStyle;fontSize=12;html=1;endFill=0;startFill=0;endSize=6;startSize=6;dashed=1;dashPattern=1 4;endArrow=none;startArrow=none;rounded=0;exitX=0.5;exitY=1;exitDx=0;exitDy=0;entryX=0.5;entryY=0;entryDx=0;entryDy=0;entryPerimeter=0;" edge="1" parent="1" source="7XbsIDxwbCqd1d_OJ_RB-24" target="7XbsIDxwbCqd1d_OJ_RB-27">
          <mxGeometry width="160" relative="1" as="geometry">
            <mxPoint x="420" y="590" as="sourcePoint" />
            <mxPoint x="580" y="590" as="targetPoint" />
          </mxGeometry>
        </mxCell>
        <mxCell id="7XbsIDxwbCqd1d_OJ_RB-32" value="" style="edgeStyle=elbowEdgeStyle;fontSize=12;html=1;endFill=0;startFill=0;endSize=6;startSize=6;dashed=1;dashPattern=1 4;endArrow=none;startArrow=none;rounded=0;exitX=0.5;exitY=0;exitDx=0;exitDy=0;entryX=0.5;entryY=0;entryDx=0;entryDy=0;" edge="1" parent="1" source="7XbsIDxwbCqd1d_OJ_RB-1" target="7XbsIDxwbCqd1d_OJ_RB-22">
          <mxGeometry width="160" relative="1" as="geometry">
            <mxPoint x="420" y="590" as="sourcePoint" />
            <mxPoint x="180" y="280" as="targetPoint" />
            <Array as="points">
              <mxPoint x="180" y="280" />
            </Array>
          </mxGeometry>
        </mxCell>
        <mxCell id="7XbsIDxwbCqd1d_OJ_RB-30" value="" style="fontSize=12;html=1;endFill=0;startFill=0;endSize=6;startSize=6;dashed=1;dashPattern=1 4;endArrow=none;startArrow=none;rounded=0;entryX=1;entryY=0.5;entryDx=0;entryDy=0;edgeStyle=elbowEdgeStyle;elbow=vertical;exitX=0.5;exitY=1;exitDx=0;exitDy=0;exitPerimeter=0;" edge="1" parent="1" source="7XbsIDxwbCqd1d_OJ_RB-27" target="7XbsIDxwbCqd1d_OJ_RB-1">
          <mxGeometry width="160" relative="1" as="geometry">
            <mxPoint x="710" y="465" as="sourcePoint" />
            <mxPoint x="720" y="415" as="targetPoint" />
            <Array as="points">
              <mxPoint x="460" y="570" />
            </Array>
          </mxGeometry>
        </mxCell>
        <mxCell id="7XbsIDxwbCqd1d_OJ_RB-33" value="" style="edgeStyle=elbowEdgeStyle;fontSize=12;html=1;endFill=0;startFill=0;endSize=6;startSize=6;dashed=1;dashPattern=1 4;endArrow=none;startArrow=none;rounded=0;exitX=0.5;exitY=1;exitDx=0;exitDy=0;entryX=0.5;entryY=0;entryDx=0;entryDy=0;" edge="1" parent="1" source="7XbsIDxwbCqd1d_OJ_RB-22" target="7XbsIDxwbCqd1d_OJ_RB-19">
          <mxGeometry width="160" relative="1" as="geometry">
            <mxPoint x="420" y="440" as="sourcePoint" />
            <mxPoint x="580" y="440" as="targetPoint" />
          </mxGeometry>
        </mxCell>
        <mxCell id="7XbsIDxwbCqd1d_OJ_RB-35" value="" style="edgeStyle=elbowEdgeStyle;fontSize=12;html=1;endFill=0;startFill=0;endSize=6;startSize=6;dashed=1;dashPattern=1 4;endArrow=none;startArrow=none;rounded=0;exitX=0.5;exitY=1;exitDx=0;exitDy=0;" edge="1" parent="1" source="7XbsIDxwbCqd1d_OJ_RB-19">
          <mxGeometry width="160" relative="1" as="geometry">
            <mxPoint x="630" y="540" as="sourcePoint" />
            <mxPoint x="210" y="580" as="targetPoint" />
            <Array as="points">
              <mxPoint x="590" y="550" />
            </Array>
          </mxGeometry>
        </mxCell>
        <mxCell id="7XbsIDxwbCqd1d_OJ_RB-6" value="" style="points=[[0.145,0.145,0],[0.5,0,0],[0.855,0.145,0],[1,0.5,0],[0.855,0.855,0],[0.5,1,0],[0.145,0.855,0],[0,0.5,0]];shape=mxgraph.bpmn.event;html=1;verticalLabelPosition=bottom;labelBackgroundColor=#ffffff;verticalAlign=top;align=center;perimeter=ellipsePerimeter;outlineConnect=0;aspect=fixed;outline=standard;symbol=general;fillColor=#99FF99;" vertex="1" parent="1">
          <mxGeometry x="155" y="410" width="50" height="50" as="geometry" />
        </mxCell>
        <mxCell id="7XbsIDxwbCqd1d_OJ_RB-41" style="edgeStyle=orthogonalEdgeStyle;rounded=0;orthogonalLoop=1;jettySize=auto;html=1;" edge="1" parent="1" source="7XbsIDxwbCqd1d_OJ_RB-37" target="7XbsIDxwbCqd1d_OJ_RB-40">
          <mxGeometry relative="1" as="geometry" />
        </mxCell>
        <mxCell id="7XbsIDxwbCqd1d_OJ_RB-37" value="Авторизация" style="rounded=0;whiteSpace=wrap;html=1;" vertex="1" parent="1">
          <mxGeometry x="240" y="707.5" width="80" height="45" as="geometry" />
        </mxCell>
        <mxCell id="7XbsIDxwbCqd1d_OJ_RB-55" style="edgeStyle=orthogonalEdgeStyle;rounded=0;orthogonalLoop=1;jettySize=auto;html=1;entryX=0;entryY=0.5;entryDx=0;entryDy=0;" edge="1" parent="1" source="7XbsIDxwbCqd1d_OJ_RB-40" target="7XbsIDxwbCqd1d_OJ_RB-54">
          <mxGeometry relative="1" as="geometry">
            <Array as="points">
              <mxPoint x="385" y="666" />
            </Array>
          </mxGeometry>
        </mxCell>
        <mxCell id="7XbsIDxwbCqd1d_OJ_RB-40" value="" style="rhombus;whiteSpace=wrap;html=1;" vertex="1" parent="1">
          <mxGeometry x="360" y="697.5" width="50" height="65" as="geometry" />
        </mxCell>
        <mxCell id="7XbsIDxwbCqd1d_OJ_RB-42" value="" style="points=[[0.145,0.145,0],[0.5,0,0],[0.855,0.145,0],[1,0.5,0],[0.855,0.855,0],[0.5,1,0],[0.145,0.855,0],[0,0.5,0]];shape=mxgraph.bpmn.event;html=1;verticalLabelPosition=bottom;labelBackgroundColor=#ffffff;verticalAlign=top;align=center;perimeter=ellipsePerimeter;outlineConnect=0;aspect=fixed;outline=standard;symbol=general;fillColor=#FF9999;" vertex="1" parent="1">
          <mxGeometry x="700" y="760" width="50" height="50" as="geometry" />
        </mxCell>
        <mxCell id="7XbsIDxwbCqd1d_OJ_RB-43" style="edgeStyle=orthogonalEdgeStyle;rounded=0;orthogonalLoop=1;jettySize=auto;html=1;exitX=0.5;exitY=1;exitDx=0;exitDy=0;entryX=0;entryY=0.5;entryDx=0;entryDy=0;" edge="1" parent="1" target="7XbsIDxwbCqd1d_OJ_RB-47" source="7XbsIDxwbCqd1d_OJ_RB-40">
          <mxGeometry relative="1" as="geometry">
            <mxPoint x="385" y="762.5" as="sourcePoint" />
          </mxGeometry>
        </mxCell>
        <mxCell id="7XbsIDxwbCqd1d_OJ_RB-50" style="edgeStyle=orthogonalEdgeStyle;rounded=0;orthogonalLoop=1;jettySize=auto;html=1;" edge="1" parent="1" source="7XbsIDxwbCqd1d_OJ_RB-47" target="7XbsIDxwbCqd1d_OJ_RB-49">
          <mxGeometry relative="1" as="geometry" />
        </mxCell>
        <mxCell id="7XbsIDxwbCqd1d_OJ_RB-47" value="Просмотреть список музыки" style="rounded=0;whiteSpace=wrap;html=1;" vertex="1" parent="1">
          <mxGeometry x="445" y="762.5" width="85" height="47.5" as="geometry" />
        </mxCell>
        <mxCell id="7XbsIDxwbCqd1d_OJ_RB-51" style="rounded=0;orthogonalLoop=1;jettySize=auto;html=1;" edge="1" parent="1" source="7XbsIDxwbCqd1d_OJ_RB-49" target="7XbsIDxwbCqd1d_OJ_RB-42">
          <mxGeometry relative="1" as="geometry" />
        </mxCell>
        <mxCell id="7XbsIDxwbCqd1d_OJ_RB-52" value="" style="edgeStyle=elbowEdgeStyle;fontSize=12;html=1;endFill=0;startFill=0;endSize=6;startSize=6;dashed=1;dashPattern=1 4;endArrow=none;startArrow=none;rounded=0;exitX=0.5;exitY=1;exitDx=0;exitDy=0;entryX=0.5;entryY=1;entryDx=0;entryDy=0;" edge="1" parent="1" source="7XbsIDxwbCqd1d_OJ_RB-1" target="7XbsIDxwbCqd1d_OJ_RB-47">
          <mxGeometry width="160" relative="1" as="geometry">
            <mxPoint x="190" y="550" as="sourcePoint" />
            <mxPoint x="600" y="310" as="targetPoint" />
            <Array as="points">
              <mxPoint x="330" y="830" />
            </Array>
          </mxGeometry>
        </mxCell>
        <mxCell id="7XbsIDxwbCqd1d_OJ_RB-53" value="" style="edgeStyle=elbowEdgeStyle;fontSize=12;html=1;endFill=0;startFill=0;endSize=6;startSize=6;dashed=1;dashPattern=1 4;endArrow=none;startArrow=none;rounded=0;exitX=0.5;exitY=1;exitDx=0;exitDy=0;entryX=0.5;entryY=1;entryDx=0;entryDy=0;" edge="1" parent="1" source="7XbsIDxwbCqd1d_OJ_RB-1" target="7XbsIDxwbCqd1d_OJ_RB-49">
          <mxGeometry width="160" relative="1" as="geometry">
            <mxPoint x="190" y="610" as="sourcePoint" />
            <mxPoint x="498" y="820" as="targetPoint" />
            <Array as="points">
              <mxPoint x="180" y="830" />
            </Array>
          </mxGeometry>
        </mxCell>
        <mxCell id="7XbsIDxwbCqd1d_OJ_RB-57" style="edgeStyle=orthogonalEdgeStyle;rounded=0;orthogonalLoop=1;jettySize=auto;html=1;" edge="1" parent="1" source="7XbsIDxwbCqd1d_OJ_RB-54" target="7XbsIDxwbCqd1d_OJ_RB-56">
          <mxGeometry relative="1" as="geometry" />
        </mxCell>
        <mxCell id="7XbsIDxwbCqd1d_OJ_RB-54" value="Добавить музыку, в свою музыку" style="rounded=0;whiteSpace=wrap;html=1;" vertex="1" parent="1">
          <mxGeometry x="445" y="642.5" width="85" height="47.5" as="geometry" />
        </mxCell>
        <mxCell id="7XbsIDxwbCqd1d_OJ_RB-56" value="Выбрать музыку" style="rounded=0;whiteSpace=wrap;html=1;" vertex="1" parent="1">
          <mxGeometry x="570" y="642.5" width="85" height="47.5" as="geometry" />
        </mxCell>
        <mxCell id="7XbsIDxwbCqd1d_OJ_RB-58" value="" style="edgeStyle=elbowEdgeStyle;fontSize=12;html=1;endFill=0;startFill=0;endSize=6;startSize=6;dashed=1;dashPattern=1 4;endArrow=none;startArrow=none;rounded=0;exitX=1;exitY=0.7;exitDx=0;exitDy=0;entryX=0.5;entryY=0;entryDx=0;entryDy=0;" edge="1" parent="1" source="7XbsIDxwbCqd1d_OJ_RB-1" target="7XbsIDxwbCqd1d_OJ_RB-56">
          <mxGeometry width="160" relative="1" as="geometry">
            <mxPoint x="190" y="610" as="sourcePoint" />
            <mxPoint x="623" y="820" as="targetPoint" />
            <Array as="points">
              <mxPoint x="610" y="610" />
            </Array>
          </mxGeometry>
        </mxCell>
        <mxCell id="7XbsIDxwbCqd1d_OJ_RB-59" value="" style="edgeStyle=elbowEdgeStyle;fontSize=12;html=1;endFill=0;startFill=0;endSize=6;startSize=6;dashed=1;dashPattern=1 4;endArrow=none;startArrow=none;rounded=0;exitX=0.5;exitY=1;exitDx=0;exitDy=0;entryX=0.5;entryY=1;entryDx=0;entryDy=0;" edge="1" parent="1" source="7XbsIDxwbCqd1d_OJ_RB-1" target="7XbsIDxwbCqd1d_OJ_RB-56">
          <mxGeometry width="160" relative="1" as="geometry">
            <mxPoint x="190" y="610" as="sourcePoint" />
            <mxPoint x="623" y="820" as="targetPoint" />
            <Array as="points">
              <mxPoint x="410" y="830" />
            </Array>
          </mxGeometry>
        </mxCell>
        <mxCell id="7XbsIDxwbCqd1d_OJ_RB-49" value="Включить музыку" style="rounded=0;whiteSpace=wrap;html=1;" vertex="1" parent="1">
          <mxGeometry x="570" y="762.5" width="85" height="47.5" as="geometry" />
        </mxCell>
        <mxCell id="7XbsIDxwbCqd1d_OJ_RB-60" value="Запись" style="shape=mxgraph.bpmn.data;labelPosition=center;verticalLabelPosition=bottom;align=center;verticalAlign=top;size=15;html=1;" vertex="1" parent="1">
          <mxGeometry x="690" y="636.25" width="40" height="60" as="geometry" />
        </mxCell>
        <mxCell id="7XbsIDxwbCqd1d_OJ_RB-62" value="" style="edgeStyle=elbowEdgeStyle;fontSize=12;html=1;endFill=0;startFill=0;endSize=6;startSize=6;dashed=1;dashPattern=1 4;endArrow=none;startArrow=none;rounded=0;exitX=0;exitY=0.5;exitDx=0;exitDy=0;entryX=1;entryY=0.5;entryDx=0;entryDy=0;exitPerimeter=0;" edge="1" parent="1" source="7XbsIDxwbCqd1d_OJ_RB-60" target="7XbsIDxwbCqd1d_OJ_RB-56">
          <mxGeometry width="160" relative="1" as="geometry">
            <mxPoint x="720" y="385" as="sourcePoint" />
            <mxPoint x="720" y="420" as="targetPoint" />
          </mxGeometry>
        </mxCell>
        <mxCell id="7XbsIDxwbCqd1d_OJ_RB-63" value="" style="fontSize=12;html=1;endFill=0;startFill=0;endSize=6;startSize=6;dashed=1;dashPattern=1 4;endArrow=none;startArrow=none;rounded=0;entryX=1;entryY=0.3;entryDx=0;entryDy=0;edgeStyle=elbowEdgeStyle;elbow=vertical;exitX=0.5;exitY=0;exitDx=0;exitDy=0;exitPerimeter=0;" edge="1" parent="1" source="7XbsIDxwbCqd1d_OJ_RB-60" target="7XbsIDxwbCqd1d_OJ_RB-1">
          <mxGeometry width="160" relative="1" as="geometry">
            <mxPoint x="720" y="475" as="sourcePoint" />
            <mxPoint x="220" y="580" as="targetPoint" />
            <Array as="points">
              <mxPoint x="460" y="560" />
            </Array>
          </mxGeometry>
        </mxCell>
        <mxCell id="7XbsIDxwbCqd1d_OJ_RB-7" value="" style="points=[[0.145,0.145,0],[0.5,0,0],[0.855,0.145,0],[1,0.5,0],[0.855,0.855,0],[0.5,1,0],[0.145,0.855,0],[0,0.5,0]];shape=mxgraph.bpmn.event;html=1;verticalLabelPosition=bottom;labelBackgroundColor=#ffffff;verticalAlign=top;align=center;perimeter=ellipsePerimeter;outlineConnect=0;aspect=fixed;outline=standard;symbol=general;fillColor=#99FF99;" vertex="1" parent="1">
          <mxGeometry x="155" y="705" width="50" height="50" as="geometry" />
        </mxCell>
      </root>
    </mxGraphModel>
  </diagram>
</mxfile>
